<?xml version="1.0" encoding="utf-8"?>
<!-- Generator: Adobe Illustrator 16.0.0, SVG Export Plug-In . SVG Version: 6.00 Build 0)  -->
<!DOCTYPE svg PUBLIC "-//W3C//DTD SVG 1.1//EN" "http://www.w3.org/Graphics/SVG/1.1/DTD/svg11.dtd">
<svg version="1.1" xmlns="http://www.w3.org/2000/svg" xmlns:xlink="http://www.w3.org/1999/xlink" x="0px" y="0px" width="133px"
	 height="149px" viewBox="0 0 133 149" enable-background="new 0 0 133 149" xml:space="preserve">
<g id="disconnected">
	<g>
		<g>
			<g>
				<path fill="#007FFF" d="M116.129,76.738c-0.001,0.277,0.016,0.557,0.056,0.836l1.585,0.203c0.034,0.141,0.071,0.283,0.118,0.424
					c0.047,0.139,0.103,0.275,0.161,0.408l-1.144,1.117c0.263,0.471,0.583,0.896,0.946,1.273l1.402-0.77
					c0.222,0.191,0.46,0.361,0.712,0.506l-0.269,1.578c0.48,0.225,0.988,0.389,1.515,0.482l0.684-1.447
					c0.289,0.025,0.582,0.021,0.877-0.008l0.709,1.43c0.258-0.051,0.516-0.113,0.771-0.199c0.256-0.086,0.5-0.191,0.736-0.306
					l-0.297-1.569c0.253-0.153,0.49-0.326,0.705-0.521l1.42,0.743c0.363-0.393,0.667-0.831,0.916-1.299l-1.165-1.097
					c0.113-0.27,0.2-0.547,0.263-0.834l1.582-0.232c0.029-0.246,0.043-0.496,0.043-0.748L116.129,76.738z"/>
				<path fill="#E6E7E8" d="M128.455,76.709c0,0.252-0.014,0.502-0.043,0.748l-1.582,0.232c-0.063,0.287-0.149,0.564-0.263,0.834
					l1.165,1.097c-0.249,0.468-0.553,0.906-0.916,1.299l-1.42-0.743c-0.215,0.195-0.451,0.368-0.705,0.521l0.297,1.569
					c-0.236,0.114-0.479,0.22-0.736,0.306c-0.255,0.086-0.514,0.148-0.771,0.199l-0.709-1.43c-0.165,0.016-0.33,0.024-0.493,0.024
					c-0.128,0-0.256-0.005-0.384-0.017l-0.684,1.447c-0.526-0.094-1.034-0.258-1.515-0.482l0.269-1.578
					c-0.252-0.145-0.491-0.314-0.712-0.506L117.852,81c-0.363-0.378-0.683-0.803-0.946-1.273l1.144-1.117
					c-0.059-0.133-0.114-0.27-0.161-0.408c-0.047-0.141-0.084-0.283-0.118-0.424l-1.585-0.203c-0.04-0.279-0.057-0.559-0.056-0.836
					L128.455,76.709 M128.991,76.172l-0.537,0.002l-12.326,0.028l-0.532,0.001l-0.002,0.533c-0.001,0.318,0.019,0.617,0.061,0.914
					l0.058,0.404l0.405,0.052l1.229,0.156c0.011,0.038,0.023,0.073,0.035,0.108s0.024,0.07,0.038,0.106l-0.887,0.866l-0.293,0.286
					l0.2,0.358c0.277,0.496,0.624,0.963,1.028,1.383l0.285,0.295l0.359-0.197l1.088-0.597c0.06,0.044,0.12,0.087,0.18,0.128
					l-0.209,1.225l-0.068,0.404l0.371,0.172c0.533,0.248,1.087,0.424,1.647,0.523l0.403,0.072l0.175-0.371l0.53-1.123
					c0.018,0,0.035,0,0.052,0c0.057,0,0.114-0.001,0.172-0.003l0.55,1.11l0.182,0.366l0.401-0.079
					c0.312-0.061,0.586-0.131,0.84-0.217c0.249-0.083,0.502-0.188,0.798-0.33l0.37-0.18l-0.077-0.403l-0.23-1.218
					c0.062-0.043,0.122-0.088,0.18-0.133l1.103,0.577l0.363,0.19l0.278-0.302c0.382-0.412,0.717-0.887,0.996-1.411l0.192-0.36
					l-0.298-0.281l-0.905-0.853c0.023-0.068,0.046-0.139,0.066-0.21l1.229-0.181l0.406-0.06l0.048-0.407
					c0.031-0.26,0.047-0.533,0.047-0.811V76.172L128.991,76.172z"/>
			</g>
			<g>
				<path fill="#F1F1F2" d="M123.935,76.723c0,1.174-0.735,2.125-1.643,2.125c-0.907,0-1.643-0.951-1.643-2.125
					c0-1.172,0.736-6.061,1.643-6.061C123.2,70.662,123.935,75.551,123.935,76.723z"/>
				<path fill="#FFFFFF" d="M122.292,79.115c-1.054,0-1.911-1.073-1.911-2.393c0-0.414,0.559-6.328,1.911-6.328
					s1.911,5.914,1.911,6.328C124.203,78.042,123.346,79.115,122.292,79.115z M122.29,70.931c-0.543,0.099-1.373,4.185-1.373,5.792
					c0,1.024,0.617,1.857,1.375,1.857s1.375-0.833,1.375-1.857C123.667,75.115,122.837,71.029,122.29,70.931z"/>
			</g>
			<circle fill="#FFFFFF" cx="122.292" cy="76.723" r="0.919"/>
		</g>
		<g>
			<g>
				<path fill="#231F20" d="M128.434,54.81c-0.051-0.261-0.114-0.524-0.2-0.784c-0.087-0.26-0.194-0.506-0.31-0.747l-1.594,0.298
					c-0.154-0.258-0.331-0.498-0.527-0.717l0.757-1.438c-0.397-0.37-0.841-0.679-1.315-0.933l-1.117,1.18
					c-0.272-0.115-0.555-0.205-0.846-0.268l-0.231-1.607c-0.527-0.063-1.066-0.064-1.608,0.01l-0.209,1.609
					c-0.144,0.033-0.287,0.071-0.429,0.119c-0.144,0.047-0.282,0.104-0.416,0.162l-1.132-1.162c-0.479,0.265-0.91,0.588-1.294,0.957
					l0.778,1.424c-0.195,0.225-0.368,0.466-0.517,0.721l-1.6-0.275c-0.227,0.487-0.397,1.002-0.493,1.535l1.467,0.697
					c-0.025,0.294-0.022,0.592,0.007,0.891l-1.454,0.717c0.051,0.262,0.113,0.524,0.2,0.783c0.087,0.26,0.194,0.508,0.31,0.748
					l1.593-0.299c0.155,0.259,0.331,0.498,0.529,0.719l-0.758,1.438c0.396,0.369,0.841,0.68,1.315,0.933l1.116-1.179
					c0.273,0.115,0.556,0.205,0.847,0.268l0.231,1.606c0.527,0.065,1.066,0.065,1.609-0.01l0.209-1.608
					c0.144-0.033,0.287-0.072,0.429-0.119c0.144-0.049,0.281-0.104,0.416-0.162l1.131,1.162c0.479-0.265,0.911-0.589,1.295-0.957
					l-0.778-1.424c0.195-0.225,0.368-0.467,0.516-0.723l1.6,0.277c0.229-0.488,0.398-1.002,0.494-1.536l-1.467-0.696
					c0.025-0.295,0.022-0.592-0.007-0.891L128.434,54.81z M122.975,58.055c-1.131,0.377-2.356-0.236-2.733-1.368
					c-0.378-1.133,0.235-2.356,1.368-2.733c1.131-0.377,2.356,0.234,2.732,1.367C124.719,56.454,124.106,57.678,122.975,58.055z"/>
				<path fill="#E6E7E8" d="M122.276,49.746c0.26,0,0.519,0.016,0.774,0.047l0.231,1.607c0.291,0.063,0.574,0.152,0.846,0.268
					l1.117-1.18c0.474,0.254,0.918,0.563,1.315,0.933l-0.757,1.438c0.197,0.219,0.374,0.459,0.527,0.717l1.594-0.298
					c0.116,0.241,0.223,0.487,0.31,0.747c0.086,0.26,0.148,0.523,0.2,0.784l-1.454,0.718c0.029,0.299,0.032,0.596,0.007,0.891
					l1.467,0.696c-0.096,0.534-0.266,1.048-0.494,1.536l-1.6-0.277c-0.148,0.256-0.321,0.498-0.516,0.723l0.778,1.424
					c-0.384,0.368-0.815,0.692-1.295,0.957l-1.131-1.162c-0.135,0.059-0.272,0.113-0.416,0.162
					c-0.142,0.047-0.286,0.086-0.429,0.119l-0.209,1.608c-0.28,0.038-0.56,0.058-0.837,0.058c-0.259,0-0.517-0.017-0.771-0.048
					l-0.231-1.606c-0.291-0.063-0.573-0.152-0.847-0.268l-1.116,1.179c-0.474-0.253-0.919-0.563-1.315-0.933l0.758-1.438
					c-0.198-0.221-0.374-0.46-0.529-0.719l-1.593,0.299c-0.116-0.24-0.223-0.488-0.31-0.748c-0.087-0.259-0.148-0.521-0.2-0.783
					l1.454-0.717c-0.029-0.299-0.032-0.597-0.007-0.891l-1.467-0.697c0.096-0.533,0.266-1.048,0.493-1.535l1.6,0.275
					c0.149-0.255,0.322-0.496,0.517-0.721l-0.778-1.424c0.384-0.369,0.815-0.692,1.294-0.957l1.132,1.162
					c0.134-0.059,0.272-0.115,0.416-0.162c0.143-0.048,0.286-0.086,0.429-0.119l0.209-1.609
					C121.721,49.765,122,49.746,122.276,49.746 M122.292,58.166c0.227,0,0.456-0.036,0.683-0.111
					c1.131-0.377,1.745-1.601,1.368-2.734c-0.301-0.906-1.145-1.479-2.05-1.479c-0.226,0-0.457,0.037-0.683,0.111
					c-1.133,0.377-1.746,1.601-1.368,2.733C120.543,57.592,121.387,58.166,122.292,58.166 M122.276,49.211
					c-0.304,0-0.609,0.02-0.907,0.061l-0.406,0.057l-0.053,0.405l-0.163,1.253c-0.039,0.013-0.077,0.025-0.115,0.037
					c-0.036,0.012-0.073,0.025-0.111,0.039l-0.882-0.906l-0.286-0.292l-0.358,0.198c-0.505,0.279-0.978,0.629-1.405,1.039
					l-0.296,0.283l0.196,0.359l0.606,1.11c-0.047,0.063-0.093,0.126-0.137,0.19l-1.248-0.216l-0.404-0.069l-0.173,0.371
					c-0.253,0.543-0.433,1.104-0.535,1.666l-0.073,0.403l0.37,0.177l1.145,0.545c-0.001,0.078,0,0.156,0.002,0.236l-1.133,0.559
					l-0.367,0.182l0.079,0.402c0.065,0.33,0.134,0.6,0.218,0.851c0.086,0.257,0.196,0.522,0.335,0.812l0.179,0.367l0.402-0.075
					L118,59.023c0.045,0.064,0.093,0.129,0.141,0.191l-0.591,1.121l-0.191,0.363l0.3,0.279c0.418,0.389,0.898,0.729,1.428,1.013
					l0.361,0.192l0.281-0.297l0.87-0.92c0.074,0.025,0.148,0.05,0.224,0.072l0.18,1.251l0.058,0.405l0.407,0.051
					c0.278,0.033,0.56,0.051,0.837,0.051c0.304,0,0.61-0.021,0.91-0.062l0.406-0.056l0.053-0.406l0.163-1.253
					c0.038-0.012,0.075-0.022,0.112-0.036c0.038-0.012,0.075-0.025,0.114-0.039l0.881,0.905l0.285,0.293l0.358-0.198
					c0.504-0.277,0.978-0.627,1.407-1.039l0.296-0.284l-0.197-0.36l-0.606-1.109c0.047-0.063,0.092-0.125,0.136-0.189l1.248,0.215
					l0.403,0.07l0.174-0.371c0.254-0.543,0.434-1.104,0.536-1.667l0.073-0.403l-0.371-0.176l-1.145-0.544
					c0.001-0.079,0-0.158-0.002-0.237l1.134-0.56l0.368-0.181l-0.079-0.402c-0.063-0.318-0.133-0.598-0.217-0.85
					c-0.086-0.258-0.193-0.516-0.336-0.812l-0.178-0.37l-0.403,0.076l-1.241,0.232c-0.045-0.065-0.092-0.129-0.141-0.191
					l0.591-1.123l0.191-0.363l-0.301-0.278c-0.42-0.391-0.9-0.731-1.428-1.013l-0.36-0.192l-0.281,0.296l-0.871,0.92
					c-0.074-0.024-0.148-0.048-0.223-0.07l-0.181-1.252l-0.058-0.406l-0.408-0.049C122.835,49.228,122.553,49.211,122.276,49.211
					L122.276,49.211z M122.292,57.629c-0.701,0-1.32-0.446-1.542-1.111c-0.137-0.412-0.106-0.853,0.088-1.241
					c0.195-0.388,0.528-0.677,0.94-0.813c0.167-0.057,0.34-0.085,0.514-0.085c0.701,0,1.32,0.447,1.542,1.112
					c0.283,0.85-0.179,1.773-1.029,2.056C122.639,57.602,122.466,57.629,122.292,57.629L122.292,57.629z"/>
			</g>
			<circle fill="#ED2C44" cx="122.292" cy="53.063" r="1.022"/>
		</g>
		<g>
			<g>
				<g>
					<path fill="#404041" d="M125.493,1.74h-7.865c-3.258,0-5.899,2.644-5.899,5.902v3.932c0,3.258-2.641,5.9-5.899,5.9H27.173
						c-3.259,0-5.9-2.643-5.9-5.9V7.643c0-3.259-2.641-5.902-5.899-5.902H7.509c-3.258,0-5.899,2.644-5.899,5.902v133.717
						c0,3.258,2.642,5.9,5.899,5.9h117.984c3.259,0,5.9-2.643,5.9-5.9V7.643C131.394,4.384,128.752,1.74,125.493,1.74z"/>
					<path fill="#808184" d="M125.493,1.74c3.259,0,5.9,2.644,5.9,5.902v133.717c0,3.258-2.642,5.9-5.9,5.9H7.509
						c-3.258,0-5.899-2.643-5.899-5.9V7.643c0-3.259,2.642-5.902,5.899-5.902h7.865c3.258,0,5.899,2.644,5.899,5.902v3.932
						c0,3.258,2.642,5.9,5.9,5.9h78.656c3.258,0,5.899-2.643,5.899-5.9V7.643c0-3.259,2.641-5.902,5.899-5.902H125.493
						 M125.493,0.133h-7.865c-4.14,0-7.507,3.369-7.507,7.51v3.932c0,2.367-1.925,4.292-4.292,4.292H27.173
						c-2.367,0-4.293-1.925-4.293-4.292V7.643c0-4.141-3.367-7.51-7.506-7.51H7.509c-4.14,0-7.507,3.369-7.507,7.51v133.717
						c0,4.14,3.368,7.508,7.507,7.508h117.984c4.14,0,7.508-3.368,7.508-7.508V7.643C133.001,3.502,129.633,0.133,125.493,0.133
						L125.493,0.133z"/>
				</g>
				<g>
					<path fill="#404041" d="M125.493,1.74h-7.865c-3.258,0-5.899,2.644-5.899,5.902v3.932c0,3.258-2.641,5.9-5.899,5.9H27.173
						c-3.259,0-5.9-2.643-5.9-5.9V7.643c0-3.259-2.641-5.902-5.899-5.902H7.509c-3.258,0-5.899,2.644-5.899,5.902v133.717
						c0,3.258,2.642,5.9,5.899,5.9h117.984c3.259,0,5.9-2.643,5.9-5.9V7.643C131.394,4.384,128.752,1.74,125.493,1.74z"/>
					<path fill="#808184" d="M125.493,147.527H7.509c-3.401,0-6.167-2.767-6.167-6.168V7.643c0-3.402,2.767-6.17,6.167-6.17h7.865
						c3.4,0,6.167,2.768,6.167,6.17v3.932c0,3.105,2.527,5.632,5.632,5.632h78.656c3.105,0,5.631-2.526,5.631-5.632V7.643
						c0-3.402,2.767-6.17,6.167-6.17h7.865c3.401,0,6.168,2.768,6.168,6.17v133.717
						C131.662,144.761,128.895,147.527,125.493,147.527z M7.509,2.009c-3.105,0-5.632,2.527-5.632,5.634v133.717
						c0,3.105,2.526,5.633,5.632,5.633h117.984c3.106,0,5.632-2.527,5.632-5.633V7.643c0-3.106-2.526-5.634-5.632-5.634h-7.865
						c-3.105,0-5.632,2.527-5.632,5.634v3.932c0,3.4-2.766,6.168-6.167,6.168H27.173c-3.401,0-6.168-2.768-6.168-6.168V7.643
						c0-3.106-2.526-5.634-5.631-5.634H7.509z"/>
				</g>
				<g>
					<circle fill="#404041" cx="11.441" cy="137.426" r="4.019"/>
					<path fill="#808184" d="M11.441,141.713c-2.364,0-4.287-1.923-4.287-4.287c0-2.363,1.923-4.287,4.287-4.287
						s4.288,1.924,4.288,4.287C15.729,139.79,13.805,141.713,11.441,141.713z M11.441,133.676c-2.068,0-3.75,1.683-3.75,3.75
						c0,2.068,1.682,3.752,3.75,3.752s3.751-1.684,3.751-3.752C15.193,135.358,13.51,133.676,11.441,133.676z"/>
				</g>
				<g>
					<circle fill="#404041" cx="27.173" cy="137.426" r="4.019"/>
					<path fill="#808184" d="M27.173,141.713c-2.364,0-4.288-1.923-4.288-4.287c0-2.363,1.924-4.287,4.288-4.287
						c2.364,0,4.287,1.924,4.287,4.287C31.46,139.79,29.537,141.713,27.173,141.713z M27.173,133.676
						c-2.069,0-3.752,1.683-3.752,3.75c0,2.068,1.684,3.752,3.752,3.752c2.068,0,3.751-1.684,3.751-3.752
						C30.924,135.358,29.241,133.676,27.173,133.676z"/>
				</g>
				<g>
					<circle fill="#404041" cx="42.904" cy="137.426" r="4.019"/>
					<path fill="#808184" d="M42.904,141.713c-2.364,0-4.287-1.923-4.287-4.287c0-2.363,1.923-4.287,4.287-4.287
						s4.287,1.924,4.287,4.287C47.191,139.79,45.268,141.713,42.904,141.713z M42.904,133.676c-2.068,0-3.751,1.683-3.751,3.75
						c0,2.068,1.683,3.752,3.751,3.752s3.751-1.684,3.751-3.752C46.655,135.358,44.972,133.676,42.904,133.676z"/>
				</g>
				<g>
					<circle fill="#404041" cx="58.636" cy="137.426" r="4.019"/>
					<path fill="#808184" d="M58.636,141.713c-2.364,0-4.288-1.923-4.288-4.287c0-2.363,1.924-4.287,4.288-4.287
						s4.287,1.924,4.287,4.287C62.922,139.79,61,141.713,58.636,141.713z M58.636,133.676c-2.068,0-3.751,1.683-3.751,3.75
						c0,2.068,1.683,3.752,3.751,3.752s3.751-1.684,3.751-3.752C62.387,135.358,60.704,133.676,58.636,133.676z"/>
				</g>
				<g>
					<circle fill="#404041" cx="74.367" cy="137.426" r="4.019"/>
					<path fill="#808184" d="M74.367,141.713c-2.364,0-4.287-1.923-4.287-4.287c0-2.363,1.923-4.287,4.287-4.287
						c2.364,0,4.287,1.924,4.287,4.287C78.654,139.79,76.731,141.713,74.367,141.713z M74.367,133.676
						c-2.068,0-3.751,1.683-3.751,3.75c0,2.068,1.683,3.752,3.751,3.752c2.069,0,3.751-1.684,3.751-3.752
						C78.118,135.358,76.436,133.676,74.367,133.676z"/>
				</g>
				<g>
					<circle fill="#404041" cx="90.099" cy="137.426" r="4.019"/>
					<path fill="#808184" d="M90.099,141.713c-2.364,0-4.288-1.923-4.288-4.287c0-2.363,1.923-4.287,4.288-4.287
						c2.363,0,4.286,1.924,4.286,4.287C94.385,139.79,92.462,141.713,90.099,141.713z M90.099,133.676
						c-2.069,0-3.752,1.683-3.752,3.75c0,2.068,1.683,3.752,3.752,3.752c2.068,0,3.75-1.684,3.75-3.752
						C93.849,135.358,92.167,133.676,90.099,133.676z"/>
				</g>
				<g>
					<circle fill="#404041" cx="105.83" cy="137.426" r="4.019"/>
					<path fill="#808184" d="M105.83,141.713c-2.364,0-4.287-1.923-4.287-4.287c0-2.363,1.923-4.287,4.287-4.287
						s4.288,1.924,4.288,4.287C110.117,139.79,108.193,141.713,105.83,141.713z M105.83,133.676c-2.068,0-3.751,1.683-3.751,3.75
						c0,2.068,1.683,3.752,3.751,3.752s3.751-1.684,3.751-3.752C109.581,135.358,107.898,133.676,105.83,133.676z"/>
				</g>
				<g>
					<circle fill="#404041" cx="121.561" cy="137.426" r="4.019"/>
					<path fill="#808184" d="M121.561,141.713c-2.364,0-4.287-1.923-4.287-4.287c0-2.363,1.923-4.287,4.287-4.287
						s4.287,1.924,4.287,4.287C125.848,139.79,123.925,141.713,121.561,141.713z M121.561,133.676c-2.068,0-3.751,1.683-3.751,3.75
						c0,2.068,1.683,3.752,3.751,3.752s3.751-1.684,3.751-3.752C125.312,135.358,123.629,133.676,121.561,133.676z"/>
				</g>
				<g>
					<circle fill="#404041" cx="11.441" cy="11.574" r="4.02"/>
					<path fill="#808184" d="M11.441,15.861c-2.364,0-4.287-1.924-4.287-4.287s1.923-4.287,4.287-4.287s4.288,1.924,4.288,4.287
						S13.805,15.861,11.441,15.861z M11.441,7.822c-2.068,0-3.75,1.684-3.75,3.752s1.682,3.751,3.75,3.751s3.751-1.683,3.751-3.751
						S13.51,7.822,11.441,7.822z"/>
				</g>
				<g>
					<circle fill="#404041" cx="121.561" cy="11.574" r="4.02"/>
					<path fill="#808184" d="M121.561,15.861c-2.364,0-4.288-1.924-4.288-4.287s1.923-4.287,4.288-4.287
						c2.364,0,4.287,1.924,4.287,4.287S123.925,15.861,121.561,15.861z M121.561,7.822c-2.069,0-3.752,1.684-3.752,3.752
						s1.683,3.751,3.752,3.751c2.068,0,3.751-1.683,3.751-3.751S123.629,7.822,121.561,7.822z"/>
				</g>
			</g>
			<g>
				<path fill="#404041" d="M59.173,38.925c0,1.474-1.206,2.68-2.679,2.68H21.888c-1.474,0-2.679-1.206-2.679-2.68v-9.349
					c0-1.474,1.206-2.68,2.679-2.68h34.606c1.474,0,2.679,1.206,2.679,2.68V38.925z"/>
				<path fill="#808184" d="M56.494,41.872H21.888c-1.625,0-2.947-1.322-2.947-2.947v-9.349c0-1.625,1.322-2.947,2.947-2.947h34.606
					c1.625,0,2.947,1.322,2.947,2.947v9.349C59.441,40.55,58.119,41.872,56.494,41.872z M21.888,27.165
					c-1.33,0-2.411,1.081-2.411,2.411v9.349c0,1.33,1.082,2.411,2.411,2.411h34.606c1.33,0,2.411-1.081,2.411-2.411v-9.349
					c0-1.33-1.082-2.411-2.411-2.411H21.888z"/>
			</g>
		</g>
		<g>
			<path fill="none" d="M65.914,120.997c0,3.832-3.135,6.967-6.966,6.967H7.503c-3.832,0-6.966-3.135-6.966-6.967v-6.163
				c0-3.831,3.135-6.966,6.966-6.966h51.444c3.832,0,6.966,3.135,6.966,6.966V120.997z"/>
			<g>
				<path fill="#808184" d="M56.993,122.605h-3.808v-1.801l2.757-9.566h2.026l-2.87,9.566h1.895v-3.808h1.913v3.808h0.919v1.801
					h-0.919v1.986h-1.913V122.605z"/>
			</g>
			<g>
				<path fill="#404041" d="M49.57,124.347c0,0.884-0.723,1.607-1.607,1.607h-27.33c-0.884,0-1.607-0.724-1.607-1.607v-12.861
					c0-0.884,0.723-1.607,1.607-1.607h27.33c0.884,0,1.607,0.724,1.607,1.607V124.347z"/>
				<path fill="#808184" d="M47.963,126.223h-27.33c-1.034,0-1.875-0.842-1.875-1.876v-12.861c0-1.034,0.841-1.876,1.875-1.876
					h27.33c1.034,0,1.875,0.842,1.875,1.876v12.861C49.838,125.381,48.997,126.223,47.963,126.223z M20.633,110.146
					c-0.739,0-1.339,0.601-1.339,1.34v12.861c0,0.739,0.601,1.339,1.339,1.339h27.33c0.739,0,1.34-0.6,1.34-1.339v-12.861
					c0-0.739-0.601-1.34-1.34-1.34H20.633z"/>
			</g>
			<g>
				<circle fill="#404041" cx="10.219" cy="117.916" r="6.162"/>
				<path fill="#808184" d="M10.22,124.347c-3.545,0-6.43-2.885-6.43-6.431s2.885-6.431,6.43-6.431c3.546,0,6.43,2.885,6.43,6.431
					S13.766,124.347,10.22,124.347z M10.22,112.021c-3.25,0-5.895,2.645-5.895,5.895s2.645,5.895,5.895,5.895
					s5.895-2.645,5.895-5.895S13.47,112.021,10.22,112.021z"/>
			</g>
		</g>
		<g>
			<path fill="none" d="M65.914,79.577c0,3.831-3.135,6.966-6.966,6.966H7.503c-3.832,0-6.966-3.135-6.966-6.966v-6.163
				c0-3.832,3.135-6.967,6.966-6.967h51.444c3.832,0,6.966,3.135,6.966,6.967V79.577z"/>
			<g>
				<path fill="#808184" d="M53.654,81.428l3.451-6.508c0.175-0.324,0.275-0.609,0.301-0.854c0.025-0.243,0.038-0.547,0.038-0.909
					c0-0.163-0.006-0.335-0.019-0.516s-0.047-0.341-0.104-0.479c-0.056-0.138-0.146-0.253-0.271-0.348
					c-0.125-0.093-0.307-0.14-0.544-0.14c-0.288,0-0.516,0.081-0.685,0.244c-0.168,0.162-0.253,0.398-0.253,0.712v1.087h-1.914
					V72.67c0-0.401,0.076-0.775,0.225-1.127c0.15-0.35,0.353-0.656,0.609-0.918c0.256-0.262,0.56-0.472,0.91-0.629
					c0.35-0.155,0.725-0.234,1.125-0.234c0.499,0,0.928,0.092,1.284,0.272c0.357,0.181,0.65,0.429,0.882,0.741
					c0.23,0.313,0.4,0.668,0.505,1.068c0.107,0.4,0.16,0.826,0.16,1.275c0,0.326-0.006,0.598-0.019,0.816
					c-0.013,0.219-0.038,0.429-0.076,0.629c-0.038,0.199-0.101,0.399-0.188,0.6c-0.088,0.199-0.206,0.443-0.356,0.731l-2.813,5.421
					h3.452v1.912h-5.702V81.428z"/>
			</g>
			<g>
				<path fill="#404041" d="M49.57,82.926c0,0.885-0.723,1.607-1.607,1.607h-27.33c-0.884,0-1.607-0.723-1.607-1.607V70.064
					c0-0.884,0.723-1.607,1.607-1.607h27.33c0.884,0,1.607,0.724,1.607,1.607V82.926z"/>
				<path fill="#808184" d="M47.963,84.802h-27.33c-1.034,0-1.875-0.841-1.875-1.876V70.064c0-1.033,0.841-1.875,1.875-1.875h27.33
					c1.034,0,1.875,0.842,1.875,1.875v12.861C49.838,83.961,48.997,84.802,47.963,84.802z M20.633,68.726
					c-0.739,0-1.339,0.601-1.339,1.339v12.861c0,0.739,0.601,1.34,1.339,1.34h27.33c0.739,0,1.34-0.601,1.34-1.34V70.064
					c0-0.738-0.601-1.339-1.34-1.339H20.633z"/>
			</g>
			<g>
				<circle fill="#404041" cx="10.22" cy="76.495" r="6.163"/>
				<path fill="#808184" d="M10.22,82.926c-3.545,0-6.43-2.885-6.43-6.431s2.885-6.431,6.43-6.431c3.546,0,6.431,2.885,6.431,6.431
					S13.766,82.926,10.22,82.926z M10.22,70.602c-3.25,0-5.895,2.644-5.895,5.894c0,3.251,2.645,5.896,5.895,5.896
					c3.25,0,5.895-2.645,5.895-5.896C16.115,73.245,13.47,70.602,10.22,70.602z"/>
			</g>
		</g>
		<g>
			<path fill="none" d="M65.914,100.345c0,3.832-3.135,6.967-6.966,6.967H7.521c-3.832,0-6.966-3.135-6.966-6.967v-6.163
				c0-3.831,3.135-6.966,6.966-6.966h51.427c3.832,0,6.966,3.135,6.966,6.966V100.345z"/>
			<g>
				<path fill="#808184" d="M55.923,96.213c0.576,0,0.973-0.068,1.191-0.206s0.329-0.456,0.329-0.957v-1.726
					c0-0.274-0.085-0.5-0.253-0.676c-0.168-0.174-0.396-0.262-0.685-0.262c-0.338,0-0.579,0.106-0.722,0.318
					c-0.145,0.213-0.215,0.419-0.215,0.619v1.088h-1.914v-1.107c0-0.387,0.076-0.756,0.225-1.105c0.15-0.35,0.357-0.65,0.619-0.9
					c0.263-0.25,0.569-0.45,0.92-0.6c0.35-0.15,0.724-0.225,1.125-0.225c0.524,0,0.959,0.102,1.303,0.309
					c0.344,0.205,0.603,0.416,0.779,0.629c0.125,0.149,0.234,0.303,0.328,0.459c0.094,0.156,0.169,0.338,0.225,0.543
					c0.056,0.207,0.1,0.458,0.132,0.751c0.031,0.294,0.047,0.653,0.047,1.078c0,0.464-0.009,0.839-0.028,1.126
					c-0.019,0.288-0.069,0.529-0.15,0.723c-0.081,0.193-0.2,0.358-0.356,0.496c-0.157,0.138-0.373,0.287-0.647,0.451
					c0.299,0.188,0.527,0.361,0.685,0.523c0.156,0.164,0.272,0.354,0.346,0.572c0.076,0.219,0.12,0.482,0.132,0.789
					c0.012,0.305,0.019,0.697,0.019,1.172c0,0.438-0.009,0.8-0.028,1.088c-0.019,0.287-0.047,0.528-0.084,0.722
					c-0.038,0.194-0.088,0.359-0.15,0.497c-0.063,0.137-0.145,0.281-0.244,0.432c-0.238,0.35-0.544,0.641-0.919,0.871
					c-0.376,0.232-0.857,0.348-1.444,0.348c-0.301,0-0.619-0.05-0.957-0.15c-0.338-0.1-0.644-0.263-0.919-0.488
					c-0.275-0.225-0.503-0.518-0.684-0.881c-0.181-0.361-0.272-0.806-0.272-1.331v-1.089h1.914v0.994
					c0,0.301,0.084,0.548,0.253,0.742c0.168,0.193,0.397,0.291,0.685,0.291c0.288,0,0.516-0.098,0.685-0.291
					c0.168-0.194,0.253-0.453,0.253-0.779v-1.912c0-0.263-0.022-0.475-0.066-0.639c-0.044-0.162-0.122-0.291-0.234-0.385
					c-0.112-0.094-0.266-0.155-0.459-0.187c-0.194-0.032-0.447-0.048-0.76-0.048V96.213z"/>
			</g>
			<g>
				<path fill="#404041" d="M49.57,103.694c0,0.884-0.723,1.607-1.607,1.607h-27.33c-0.884,0-1.607-0.724-1.607-1.607V90.833
					c0-0.884,0.723-1.607,1.607-1.607h27.33c0.884,0,1.607,0.724,1.607,1.607V103.694z"/>
				<path fill="#808184" d="M47.963,105.57h-27.33c-1.034,0-1.875-0.842-1.875-1.876V90.833c0-1.034,0.841-1.876,1.875-1.876h27.33
					c1.034,0,1.875,0.842,1.875,1.876v12.861C49.838,104.729,48.997,105.57,47.963,105.57z M20.633,89.493
					c-0.739,0-1.339,0.601-1.339,1.34v12.861c0,0.739,0.601,1.339,1.339,1.339h27.33c0.739,0,1.34-0.6,1.34-1.339V90.833
					c0-0.739-0.601-1.34-1.34-1.34H20.633z"/>
			</g>
			<g>
				<circle fill="#404041" cx="10.22" cy="97.264" r="6.163"/>
				<path fill="#808184" d="M10.22,103.694c-3.545,0-6.43-2.885-6.43-6.431s2.885-6.431,6.43-6.431c3.546,0,6.431,2.885,6.431,6.431
					S13.766,103.694,10.22,103.694z M10.22,91.369c-3.25,0-5.895,2.645-5.895,5.895s2.645,5.895,5.895,5.895
					c3.25,0,5.895-2.645,5.895-5.895S13.47,91.369,10.22,91.369z"/>
			</g>
		</g>
		<g>
			<path fill="none" d="M132.465,100.341c0,3.831-3.135,6.966-6.966,6.966H74.055c-3.832,0-6.967-3.135-6.967-6.966v-6.163
				c0-3.832,3.135-6.966,6.967-6.966h51.444c3.832,0,6.966,3.134,6.966,6.966V100.341z"/>
			<g>
				<path fill="#808184" d="M79.681,100.955c0,0.412-0.079,0.807-0.234,1.182c-0.157,0.375-0.373,0.703-0.647,0.984
					c-0.275,0.281-0.598,0.506-0.966,0.675c-0.37,0.169-0.766,0.253-1.191,0.253c-0.363,0-0.732-0.049-1.106-0.149
					c-0.376-0.1-0.713-0.272-1.013-0.517c-0.3-0.243-0.547-0.564-0.741-0.965c-0.193-0.4-0.291-0.907-0.291-1.52v-7.353
					c0-0.438,0.076-0.844,0.225-1.22c0.151-0.374,0.363-0.699,0.639-0.975c0.274-0.274,0.603-0.49,0.985-0.647
					c0.381-0.155,0.803-0.234,1.265-0.234c0.438,0,0.845,0.079,1.22,0.234c0.375,0.157,0.7,0.376,0.975,0.657
					c0.274,0.281,0.49,0.619,0.647,1.012c0.156,0.395,0.234,0.823,0.234,1.286v0.751h-1.913v-0.639c0-0.375-0.106-0.701-0.318-0.977
					c-0.213-0.273-0.5-0.412-0.863-0.412c-0.475,0-0.792,0.148-0.947,0.441s-0.234,0.665-0.234,1.116v6.826
					c0,0.389,0.084,0.713,0.253,0.976c0.169,0.263,0.472,0.395,0.91,0.395c0.125,0,0.26-0.021,0.404-0.066
					c0.143-0.043,0.274-0.115,0.394-0.215c0.118-0.101,0.215-0.238,0.291-0.412c0.075-0.176,0.112-0.395,0.112-0.658v-0.656h1.913
					V100.955z"/>
			</g>
			<g>
				<path fill="#404041" d="M113.978,103.689c0,0.885-0.724,1.608-1.607,1.608H85.04c-0.884,0-1.607-0.724-1.607-1.608v-12.86
					c0-0.885,0.723-1.608,1.607-1.608h27.33c0.884,0,1.607,0.724,1.607,1.608V103.689z"/>
				<path fill="#808184" d="M112.37,105.565H85.04c-1.034,0-1.875-0.841-1.875-1.876v-12.86c0-1.034,0.841-1.876,1.875-1.876h27.33
					c1.034,0,1.875,0.842,1.875,1.876v12.86C114.246,104.725,113.404,105.565,112.37,105.565z M85.04,89.489
					c-0.739,0-1.34,0.601-1.34,1.34v12.86c0,0.739,0.601,1.34,1.34,1.34h27.33c0.738,0,1.339-0.601,1.339-1.34v-12.86
					c0-0.739-0.601-1.34-1.339-1.34H85.04z"/>
			</g>
			<g>
				<circle fill="#404041" cx="122.292" cy="97.26" r="6.163"/>
				<path fill="#808184" d="M122.292,103.691c-3.546,0-6.431-2.885-6.431-6.432s2.885-6.431,6.431-6.431s6.431,2.884,6.431,6.431
					S125.838,103.691,122.292,103.691z M122.292,91.365c-3.25,0-5.895,2.645-5.895,5.895s2.644,5.896,5.895,5.896
					s5.895-2.646,5.895-5.896S125.542,91.365,122.292,91.365z"/>
			</g>
		</g>
		<g>
			<path fill="none" d="M132.465,120.997c0,3.832-3.135,6.967-6.966,6.967H74.055c-3.832,0-6.967-3.135-6.967-6.967v-6.163
				c0-3.831,3.135-6.966,6.967-6.966h51.444c3.832,0,6.966,3.135,6.966,6.966V120.997z"/>
			<g>
				<path fill="#808184" d="M73.604,111.238h2.832c1.087,0,1.919,0.304,2.494,0.91c0.576,0.606,0.864,1.453,0.864,2.542v6.245
					c0,1.25-0.304,2.173-0.911,2.766c-0.606,0.596-1.478,0.891-2.616,0.891h-2.664V111.238z M75.518,122.792h0.881
					c0.538,0,0.919-0.134,1.144-0.403c0.225-0.269,0.338-0.689,0.338-1.266v-6.433c0-0.526-0.106-0.932-0.319-1.22
					c-0.213-0.287-0.6-0.432-1.163-0.432h-0.881V122.792z"/>
			</g>
			<g>
				<path fill="#404041" d="M113.978,124.347c0,0.884-0.724,1.607-1.607,1.607H85.04c-0.884,0-1.607-0.724-1.607-1.607v-12.861
					c0-0.884,0.723-1.607,1.607-1.607h27.33c0.884,0,1.607,0.724,1.607,1.607V124.347z"/>
				<path fill="#808184" d="M112.37,126.223H85.04c-1.034,0-1.875-0.842-1.875-1.876v-12.861c0-1.034,0.841-1.876,1.875-1.876h27.33
					c1.034,0,1.875,0.842,1.875,1.876v12.861C114.246,125.381,113.404,126.223,112.37,126.223z M85.04,110.146
					c-0.739,0-1.34,0.601-1.34,1.34v12.861c0,0.739,0.601,1.339,1.34,1.339h27.33c0.738,0,1.339-0.6,1.339-1.339v-12.861
					c0-0.739-0.601-1.34-1.339-1.34H85.04z"/>
			</g>
			<g>
				<circle fill="#404041" cx="122.292" cy="117.916" r="6.162"/>
				<path fill="#808184" d="M122.292,124.347c-3.545,0-6.43-2.885-6.43-6.431s2.885-6.431,6.43-6.431s6.43,2.885,6.43,6.431
					S125.837,124.347,122.292,124.347z M122.292,112.021c-3.25,0-5.894,2.645-5.894,5.895s2.644,5.895,5.894,5.895
					s5.894-2.645,5.894-5.895S125.542,112.021,122.292,112.021z"/>
			</g>
		</g>
		<g>
			<path fill="none" d="M132.465,38.443c0,3.832-3.135,6.967-6.966,6.967H74.055c-3.832,0-6.967-3.135-6.967-6.967V32.28
				c0-3.831,3.135-6.966,6.967-6.966h51.444c3.832,0,6.966,3.135,6.966,6.966V38.443z"/>
			<g>
				<path fill="#404041" d="M113.868,41.793c0,0.885-0.724,1.607-1.607,1.607H99.399c-0.884,0-1.607-0.723-1.607-1.607V28.932
					c0-0.885,0.723-1.608,1.607-1.608h12.861c0.884,0,1.607,0.724,1.607,1.608V41.793z"/>
				<path fill="#808184" d="M112.261,43.668H99.399c-1.034,0-1.875-0.842-1.875-1.875V28.932c0-1.035,0.841-1.876,1.875-1.876
					h12.861c1.034,0,1.875,0.841,1.875,1.876v12.861C114.136,42.826,113.294,43.668,112.261,43.668z M99.399,27.592
					c-0.739,0-1.34,0.6-1.34,1.34v12.861c0,0.738,0.601,1.34,1.34,1.34h12.861c0.738,0,1.339-0.602,1.339-1.34V28.932
					c0-0.74-0.601-1.34-1.339-1.34H99.399z"/>
			</g>
			<path fill="#808184" d="M73.604,28.617h1.913V40.06h3.789v1.913h-5.702V28.617z"/>
			<path fill="#808184" d="M80.543,28.685h5.702v1.801h-3.789v3.921h3.301v1.8h-3.301v3.92h3.789v1.913h-5.702V28.685z"/>
			<path fill="#808184" d="M87.483,28.685h2.832c1.089,0,1.92,0.304,2.495,0.909c0.575,0.607,0.863,1.454,0.863,2.542v6.245
				c0,1.251-0.304,2.174-0.91,2.768c-0.607,0.594-1.479,0.891-2.617,0.891h-2.664V28.685z M89.396,40.238h0.881
				c0.538,0,0.92-0.135,1.145-0.403s0.337-0.69,0.337-1.267v-6.433c0-0.524-0.105-0.931-0.318-1.219
				c-0.214-0.288-0.601-0.432-1.164-0.432h-0.881V40.238z"/>
			<g>
				<circle fill="#5D5D5D" cx="122.292" cy="35.362" r="6.163"/>
				<g>
					<circle fill="#929497" cx="122.292" cy="35.362" r="3.033"/>
					<path fill="#6D6E70" d="M122.292,38.932c-1.968,0-3.569-1.602-3.569-3.569s1.601-3.569,3.569-3.569
						c1.968,0,3.569,1.602,3.569,3.569S124.26,38.932,122.292,38.932z M122.292,32.864c-1.377,0-2.497,1.12-2.497,2.498
						c0,1.376,1.12,2.497,2.497,2.497c1.377,0,2.498-1.121,2.498-2.497C124.79,33.984,123.669,32.864,122.292,32.864z"/>
				</g>
			</g>
		</g>
		<g>
			<g>
				<g>
					<circle fill="#404041" cx="122.292" cy="56.004" r="6.163"/>
					<path fill="#808184" d="M122.292,62.435c-3.546,0-6.431-2.885-6.431-6.431s2.885-6.431,6.431-6.431s6.431,2.885,6.431,6.431
						S125.838,62.435,122.292,62.435z M122.292,50.109c-3.25,0-5.895,2.645-5.895,5.895s2.644,5.895,5.895,5.895
						s5.895-2.645,5.895-5.895S125.542,50.109,122.292,50.109z"/>
				</g>
				<path fill="none" d="M132.465,59.086c0,3.831-3.135,6.966-6.966,6.966H74.055c-3.832,0-6.967-3.135-6.967-6.966v-6.163
					c0-3.832,3.135-6.967,6.967-6.967h51.444c3.832,0,6.966,3.135,6.966,6.967V59.086z"/>
				<g>
					<path fill="#808184" d="M75.724,49.303h1.594L80.3,62.658h-1.912l-0.563-2.871h-2.607l-0.563,2.871h-1.912L75.724,49.303z
						 M76.53,53.148h-0.037l-0.938,4.839h1.913L76.53,53.148z"/>
				</g>
				<g>
					<path fill="#404041" d="M113.978,62.435c0,0.884-0.724,1.607-1.607,1.607H85.04c-0.884,0-1.607-0.724-1.607-1.607V49.573
						c0-0.884,0.723-1.607,1.607-1.607h27.33c0.884,0,1.607,0.724,1.607,1.607V62.435z"/>
					<path fill="#808184" d="M112.37,47.966c0.884,0,1.607,0.724,1.607,1.607v12.861c0,0.884-0.724,1.607-1.607,1.607H85.04
						c-0.884,0-1.607-0.724-1.607-1.607V49.573c0-0.884,0.723-1.607,1.607-1.607H112.37 M112.37,47.43H85.04
						c-1.182,0-2.144,0.961-2.144,2.144v12.861c0,1.183,0.961,2.144,2.144,2.144h27.33c1.182,0,2.144-0.961,2.144-2.144V49.573
						C114.514,48.391,113.552,47.43,112.37,47.43L112.37,47.43z"/>
				</g>
			</g>
		</g>
		<g>
			<g>
				<path fill="none" d="M132.465,79.682c0,3.832-3.135,6.967-6.966,6.967H74.055c-3.832,0-6.967-3.135-6.967-6.967V73.52
					c0-3.832,3.135-6.967,6.967-6.967h51.444c3.832,0,6.966,3.135,6.966,6.967V79.682z"/>
				<g>
					<path fill="#808184" d="M73.604,69.924h2.794c0.612,0,1.135,0.094,1.566,0.281s0.785,0.438,1.06,0.75
						c0.274,0.313,0.472,0.673,0.59,1.078c0.12,0.407,0.179,0.829,0.179,1.267v0.487c0,0.363-0.028,0.669-0.085,0.92
						c-0.057,0.25-0.141,0.469-0.253,0.656c-0.113,0.188-0.25,0.354-0.412,0.496c-0.164,0.145-0.351,0.279-0.563,0.404
						c0.45,0.213,0.782,0.527,0.994,0.947c0.212,0.419,0.319,0.978,0.319,1.678v0.75c0,1.176-0.285,2.076-0.854,2.701
						c-0.57,0.625-1.479,0.938-2.729,0.938h-2.607V69.924z M75.518,75.4h0.863c0.637,0,1.065-0.159,1.285-0.479
						c0.218-0.318,0.328-0.784,0.328-1.396c0-0.601-0.122-1.051-0.365-1.351c-0.244-0.301-0.685-0.45-1.323-0.45h-0.787V75.4z
						 M75.518,81.365h0.825c0.387,0,0.691-0.057,0.91-0.169s0.385-0.269,0.497-0.47c0.113-0.199,0.181-0.438,0.207-0.712
						c0.025-0.274,0.038-0.575,0.038-0.901c0-0.336-0.019-0.631-0.057-0.881c-0.037-0.25-0.115-0.459-0.234-0.628
						c-0.118-0.169-0.284-0.298-0.496-0.386c-0.214-0.086-0.495-0.131-0.845-0.131h-0.844V81.365z"/>
				</g>
				<g>
					<path fill="#404041" d="M113.978,83.031c0,0.885-0.724,1.607-1.607,1.607H85.04c-0.884,0-1.607-0.723-1.607-1.607V70.17
						c0-0.885,0.723-1.607,1.607-1.607h27.33c0.884,0,1.607,0.723,1.607,1.607V83.031z"/>
					<path fill="#808184" d="M112.37,84.906H85.04c-1.034,0-1.875-0.841-1.875-1.875V70.17c0-1.033,0.841-1.875,1.875-1.875h27.33
						c1.034,0,1.875,0.842,1.875,1.875v12.861C114.246,84.065,113.404,84.906,112.37,84.906z M85.04,68.83
						c-0.739,0-1.34,0.602-1.34,1.34v12.861c0,0.739,0.601,1.34,1.34,1.34h27.33c0.738,0,1.339-0.601,1.339-1.34V70.17
						c0-0.738-0.601-1.34-1.339-1.34H85.04z"/>
				</g>
				<g>
					<circle fill="#404041" cx="122.292" cy="76.602" r="6.162"/>
					<path fill="#808184" d="M122.292,83.031c-3.545,0-6.43-2.885-6.43-6.43c0-3.547,2.885-6.432,6.43-6.432s6.43,2.885,6.43,6.432
						C128.722,80.146,125.837,83.031,122.292,83.031z M122.292,70.706c-3.25,0-5.894,2.645-5.894,5.896
						c0,3.25,2.644,5.895,5.894,5.895s5.894-2.645,5.894-5.895C128.186,73.351,125.542,70.706,122.292,70.706z"/>
				</g>
			</g>
		</g>
		<g>
			<path fill="none" d="M65.914,59.079c0,3.831-3.135,6.966-6.966,6.966H7.503c-3.832,0-6.966-3.135-6.966-6.966v-6.163
				c0-3.832,3.135-6.966,6.966-6.966h51.444c3.832,0,6.966,3.134,6.966,6.966V59.079z"/>
			<g>
				<path fill="#808184" d="M56.504,51.346l-1.912,1.406v-2.024l1.912-1.407h1.913v13.354h-1.913V51.346z"/>
			</g>
			<g>
				<path fill="#404041" d="M49.57,62.428c0,0.885-0.723,1.608-1.607,1.608h-27.33c-0.884,0-1.607-0.724-1.607-1.608v-12.86
					c0-0.885,0.723-1.608,1.607-1.608h27.33c0.884,0,1.607,0.724,1.607,1.608V62.428z"/>
				<path fill="#808184" d="M47.963,64.304h-27.33c-1.034,0-1.875-0.841-1.875-1.876v-12.86c0-1.034,0.841-1.876,1.875-1.876h27.33
					c1.034,0,1.875,0.842,1.875,1.876v12.86C49.838,63.463,48.997,64.304,47.963,64.304z M20.633,48.228
					c-0.739,0-1.339,0.601-1.339,1.34v12.86c0,0.739,0.601,1.34,1.339,1.34h27.33c0.739,0,1.34-0.601,1.34-1.34v-12.86
					c0-0.739-0.601-1.34-1.34-1.34H20.633z"/>
			</g>
			<g>
				<circle fill="#404041" cx="10.22" cy="55.997" r="6.163"/>
				<path fill="#808184" d="M10.22,62.428c-3.546,0-6.431-2.885-6.431-6.431s2.885-6.43,6.431-6.43s6.43,2.884,6.43,6.43
					S13.766,62.428,10.22,62.428z M10.22,50.104c-3.25,0-5.895,2.645-5.895,5.894c0,3.251,2.645,5.896,5.895,5.896
					s5.895-2.645,5.895-5.896C16.115,52.748,13.471,50.104,10.22,50.104z"/>
			</g>
		</g>
		<g>
			<g>
				<path fill="#808184" d="M28.379,29.107h1.313l1.754,5.05h0.027l1.742-5.05h1.327v9.538h-1.367v-5.802h-0.027l-1.353,4.101
					h-0.684l-1.34-4.101h-0.026v5.802h-1.367V29.107z"/>
				<path fill="#808184" d="M36.994,35.766v0.924c0,0.215,0.06,0.38,0.181,0.496c0.12,0.116,0.283,0.174,0.489,0.174
					c0.259,0,0.431-0.076,0.516-0.229c0.085-0.151,0.136-0.303,0.154-0.455H39.7c0,0.286-0.047,0.555-0.141,0.805
					c-0.093,0.25-0.229,0.464-0.408,0.643c-0.179,0.188-0.394,0.335-0.644,0.441c-0.25,0.107-0.532,0.162-0.844,0.162
					c-0.42,0-0.782-0.09-1.085-0.269c-0.304-0.179-0.536-0.415-0.697-0.71c-0.098-0.179-0.165-0.385-0.201-0.617
					c-0.036-0.23-0.054-0.486-0.054-0.763v-2.237c0-0.277,0.018-0.531,0.054-0.764s0.103-0.438,0.201-0.616
					c0.161-0.295,0.393-0.531,0.697-0.71c0.303-0.179,0.666-0.269,1.085-0.269c0.312,0,0.596,0.054,0.851,0.161
					c0.254,0.107,0.469,0.257,0.643,0.449c0.174,0.191,0.309,0.417,0.402,0.676c0.094,0.26,0.141,0.536,0.141,0.831v1.876H36.994z
					 M36.994,34.693h1.339v-0.777c0-0.259-0.06-0.453-0.181-0.582c-0.121-0.13-0.284-0.195-0.489-0.195
					c-0.206,0-0.369,0.065-0.489,0.195c-0.121,0.129-0.181,0.323-0.181,0.582V34.693z"/>
				<path fill="#808184" d="M40.705,31.854h1.366v0.656h0.027c0.142-0.215,0.314-0.391,0.515-0.529
					c0.201-0.139,0.458-0.208,0.771-0.208c0.169,0,0.34,0.029,0.509,0.087c0.169,0.059,0.321,0.154,0.455,0.289
					c0.134,0.133,0.241,0.306,0.322,0.516c0.08,0.209,0.121,0.467,0.121,0.77v5.212h-1.366v-4.702c0-0.25-0.058-0.447-0.174-0.59
					s-0.281-0.215-0.496-0.215c-0.259,0-0.438,0.081-0.536,0.242c-0.098,0.16-0.147,0.393-0.147,0.695v4.569h-1.366V31.854z"/>
				<path fill="#808184" d="M50.002,38.646h-1.366v-0.656h-0.027c-0.143,0.214-0.315,0.39-0.516,0.528
					c-0.201,0.139-0.458,0.209-0.771,0.209c-0.169,0-0.34-0.029-0.509-0.088s-0.321-0.154-0.455-0.287
					c-0.134-0.135-0.241-0.307-0.321-0.517c-0.081-0.21-0.121-0.466-0.121-0.771v-5.211h1.367v4.701c0,0.251,0.058,0.447,0.174,0.59
					c0.116,0.144,0.282,0.215,0.496,0.215c0.259,0,0.438-0.08,0.536-0.24c0.098-0.162,0.147-0.394,0.147-0.697v-4.568h1.366V38.646z
					"/>
			</g>
		</g>
		<rect x="6.569" y="30.231" fill="#800B15" width="8.038" height="8.038"/>
	</g>
</g>
<g id="connected">
</g>
<g id="example">
</g>
</svg>
